<svg width="390" height="26" viewBox="0 0 390 26" fill="none" xmlns="http://www.w3.org/2000/svg">
<path d="M7.26562 16.6432L7.34375 17.2441H7.42187L7.5 16.7183L10.9375 5H15L9.60937 21H5.39062L0 5H4.0625L7.26562 16.6432Z" fill="black"/>
<path d="M21.4611 11.9859L24.8031 5H29L23.3264 15.3662V21H19.5181V15.216L14 5H18.1192L21.4611 11.9859Z" fill="black"/>
<path d="M36.1309 17.9202H30.8691L29.9267 21H26L31.4188 5H35.5812L41 21H37.0733L36.1309 17.9202ZM31.733 14.9906H35.267L33.5393 9.28169H33.4607L31.733 14.9906Z" fill="black"/>
<path d="M44.6329 18.1455H52V21H40V19.3474L47.2911 7.85446H40V5H51.9241V6.57747L44.6329 18.1455Z" fill="black"/>
<path d="M58.1542 5L61.9604 16.1925H62.0396L65.8458 5H71V21H67.0352V17.0188L67.4317 9.73239H67.3524L63.3084 21H60.6916L56.6476 9.80751H56.5683L56.9648 17.0188V21H53V5H58.1542Z" fill="black"/>
<path d="M77 21H73V5H77V21Z" fill="black"/>
<path d="M92 21H88.1461L82.0112 10.784H81.9326V21H78V5H81.9326L88.0674 15.216H88.1461V5H92V21Z" fill="black"/>
<path d="M107 14.9682C107 16.9773 106.381 18.6773 105.066 19.9909C103.751 21.3045 102.127 22 100.039 22C97.9503 22 96.2486 21.3045 94.9337 19.9909C93.6188 18.6773 93 16.9773 93 14.9682V12.0318C93 10.0227 93.6188 8.32273 94.9337 7.00909C96.2486 5.69545 97.9503 5 100.039 5C102.127 5 103.829 5.69545 105.066 7.00909C106.381 8.32273 107 10.0227 107 12.0318V14.9682ZM103.21 11.9545C103.21 10.7955 102.901 9.79091 102.359 9.09545C101.818 8.32273 101.044 7.93636 100.039 7.93636C99.0332 7.93636 98.1823 8.32273 97.6409 9.09545C97.0994 9.86818 96.7901 10.7955 96.7901 12.0318V15.0455C96.7901 16.2045 97.0994 17.2091 97.6409 17.9818C98.1823 18.7545 98.9558 19.1409 100.039 19.1409C101.044 19.1409 101.818 18.7545 102.359 17.9818C102.901 17.2091 103.21 16.2818 103.21 15.0455V11.9545Z" fill="black"/>
<path d="M114.342 16.6432L114.421 17.2441H114.5L114.579 16.7183L117.895 5H122L116.553 21H112.368L107 5H111.105L114.342 16.6432Z" fill="black"/>
<path d="M130.131 17.9202H124.869L123.927 21H120L125.419 5H129.581L135 21H131.073L130.131 17.9202ZM125.733 14.9906H129.267L127.539 9.28169H127.461L125.733 14.9906Z" fill="black"/>
<path d="M142 24H139V2H142V24Z" fill="black"/>
<path d="M157.077 17.3425C157.077 16.7215 156.923 16.3333 156.538 16.0228C156.154 15.7123 155.462 15.4018 154.462 15.0137C152.385 14.3927 150.846 13.6164 149.846 12.9178C148.846 12.1416 148.385 11.0548 148.385 9.65753C148.385 8.26027 149 7.17352 150.154 6.31963C151.308 5.46575 152.846 5 154.692 5C156.538 5 158 5.46575 159.154 6.39726C160.308 7.32877 160.846 8.57078 160.846 10.0457V10.1233H157.154C157.154 9.50228 156.923 8.9589 156.462 8.49315C156 8.0274 155.385 7.87215 154.615 7.87215C153.846 7.87215 153.231 8.0274 152.846 8.41553C152.385 8.72603 152.231 9.19178 152.231 9.65753C152.231 10.1233 152.462 10.5114 152.923 10.8219C153.385 11.1324 154.154 11.4429 155.385 11.9087C157.231 12.4521 158.615 13.1507 159.615 14.0046C160.615 14.8584 161 15.9452 161 17.3425C161 18.8174 160.462 19.9041 159.308 20.758C158.154 21.6119 156.692 22 154.846 22C153 22 151.385 21.5342 150 20.6027C148.615 19.6712 148 18.274 148 16.4886V16.411H151.692C151.692 17.3425 151.923 18.0411 152.462 18.4292C153 18.8174 153.769 19.0502 154.769 19.0502C155.538 19.0502 156.154 18.895 156.538 18.5845C156.923 18.274 157.077 17.8858 157.077 17.3425Z" fill="black"/>
<path d="M172.885 14.1643H166.642V18.1455H174V21H163V5H174V7.85446H166.642V11.3099H172.885V14.1643Z" fill="black"/>
<path d="M178.823 18.1455H186V21H175V5H178.901V18.1455H178.823Z" fill="black"/>
<path d="M189.382 16.6432L189.461 17.2441H189.539L189.618 16.7183L192.916 5H197L191.581 21H187.419L182 5H186.084L189.382 16.6432Z" fill="black"/>
<path d="M202 21H198V5H202V21Z" fill="black"/>
<path d="M217 21H213.146L207.011 10.784H206.933V21H203V5H206.933L213.067 15.216H213.146V5H217V21Z" fill="black"/>
<path d="M227.077 17.3425C227.077 16.7215 226.923 16.3333 226.538 16.0228C226.154 15.7123 225.462 15.4018 224.462 15.0137C222.385 14.3927 220.846 13.6164 219.846 12.9178C218.846 12.1416 218.385 11.0548 218.385 9.65753C218.385 8.26027 219 7.17352 220.154 6.31963C221.308 5.46575 222.846 5 224.692 5C226.538 5 228 5.46575 229.154 6.39726C230.308 7.32877 230.846 8.57078 230.846 10.0457V10.1233H227.154C227.154 9.50228 226.923 8.9589 226.462 8.49315C226 8.0274 225.385 7.87215 224.615 7.87215C223.846 7.87215 223.231 8.0274 222.846 8.41553C222.385 8.72603 222.231 9.19178 222.231 9.65753C222.231 10.1233 222.462 10.5114 222.923 10.8219C223.385 11.1324 224.154 11.4429 225.385 11.9087C227.231 12.4521 228.615 13.1507 229.615 14.0046C230.538 14.8584 231 15.9452 231 17.3425C231 18.8174 230.462 19.9041 229.308 20.758C228.154 21.6119 226.692 22 224.846 22C223 22 221.385 21.5342 220 20.6027C218.615 19.6712 218 18.274 218 16.4886V16.411H221.692C221.692 17.3425 221.923 18.0411 222.462 18.4292C223 18.8174 223.769 19.0502 224.769 19.0502C225.538 19.0502 226.154 18.895 226.538 18.5845C226.846 18.274 227.077 17.8858 227.077 17.3425Z" fill="black"/>
<path d="M237.615 14.4953H235.846V20.9252H232V5H235.846V11.2056H237.154L240.769 5H245.538L240.462 12.2523L246 21H241.385L237.615 14.4953Z" fill="black"/>
<path d="M252.422 11.9859L255.781 5H260L254.375 15.3662V21H250.547V15.216L245 5H249.141L252.422 11.9859Z" fill="black"/>
<path d="M274.011 16.8685H266.91L265.314 21H263L269.543 5H271.537L278 21H275.686L274.011 16.8685ZM267.628 15.0657H273.372L270.58 7.77934H270.5L267.628 15.0657Z" fill="black"/>
<path d="M281.217 13.9302V20.7767H279V5H284.885C286.643 5 288.019 5.37209 288.936 6.1907C289.854 6.93488 290.312 8.05116 290.312 9.53954C290.312 10.3581 290.083 11.0279 289.624 11.6977C289.166 12.3674 288.554 12.814 287.713 13.1116C288.631 13.4093 289.242 13.8558 289.624 14.5256C290.006 15.1953 290.236 15.9395 290.236 16.907V18.3953C290.236 18.9163 290.312 19.3628 290.389 19.7349C290.465 20.107 290.694 20.4791 291 20.7023V21H288.707C288.401 20.7767 288.248 20.4047 288.172 19.8837C288.096 19.4372 288.019 18.9163 288.019 18.3953V16.9814C288.019 16.0884 287.79 15.4186 287.255 14.8977C286.72 14.3767 286.032 14.0791 285.191 14.0791H281.217V13.9302ZM281.217 12.293H284.656C285.879 12.293 286.796 12.0698 287.331 11.6233C287.866 11.1767 288.172 10.4326 288.172 9.53954C288.172 8.64651 287.943 7.97674 287.408 7.45581C286.873 6.93488 286.032 6.71163 284.885 6.71163H281.217V12.293Z" fill="black"/>
<path d="M305.919 15.5136C306 17.1364 305.435 18.45 304.224 19.4545C303.093 20.5364 301.478 21 299.621 21C297.683 21 296.068 20.3045 294.857 18.9909C293.646 17.6773 293 15.9773 293 13.9682V11.0318C293 9.02273 293.646 7.32273 294.857 6.00909C296.068 4.69545 297.683 4 299.621 4C301.559 4 303.093 4.46364 304.304 5.46818C305.435 6.47273 306 7.78636 306 9.40909V9.48636H303.739C303.739 8.32727 303.416 7.4 302.689 6.78182C301.963 6.08636 300.994 5.77727 299.702 5.77727C298.41 5.77727 297.36 6.24091 296.553 7.24545C295.745 8.25 295.422 9.48636 295.422 10.9545V13.8909C295.422 15.3591 295.826 16.6727 296.553 17.6773C297.36 18.6818 298.329 19.1455 299.702 19.1455C300.994 19.1455 301.963 18.8364 302.689 18.1409C303.416 17.4455 303.739 16.5182 303.739 15.3591H305.919V15.5136Z" fill="black"/>
<path d="M319.92 21H317.593V13.939H309.247V21H307V5H309.327V12.2113H317.673V5H320V21H319.92Z" fill="black"/>
<path d="M325 21H323V5H325V21Z" fill="black"/>
<path d="M339 6.65258H333.596V21H331.325V6.65258H326V5H339V6.65258Z" fill="black"/>
<path d="M350.83 13.5634H343.184V19.2723H352V21H341V5H351.922V6.7277H343.262V11.9108H350.908V13.5634H350.83Z" fill="black"/>
<path d="M364.919 15.5136C365 17.1364 364.435 18.45 363.224 19.4545C362.093 20.5364 360.478 21 358.621 21C356.683 21 355.068 20.3045 353.857 18.9909C352.646 17.6773 352 15.9773 352 13.9682V11.0318C352 9.02273 352.646 7.32273 353.857 6.00909C355.068 4.69545 356.683 4 358.621 4C360.559 4 362.093 4.46364 363.304 5.46818C364.435 6.47273 365 7.78636 365 9.40909V9.48636H362.739C362.739 8.32727 362.416 7.4 361.689 6.78182C360.963 6.08636 359.994 5.77727 358.702 5.77727C357.41 5.77727 356.36 6.24091 355.553 7.24545C354.745 8.25 354.422 9.48636 354.422 10.9545V13.8909C354.422 15.3591 354.826 16.6727 355.553 17.6773C356.36 18.6818 357.329 19.1455 358.702 19.1455C359.994 19.1455 360.963 18.8364 361.689 18.1409C362.416 17.4455 362.739 16.5182 362.739 15.3591H364.919V15.5136Z" fill="black"/>
<path d="M378 6.65258H372.596V21H370.325V6.65258H365V5H378V6.65258Z" fill="black"/>
<path d="M387.846 16.653C387.846 15.8767 387.538 15.2557 387 14.79C386.462 14.3242 385.462 13.8584 384 13.4703C382.231 13.0822 380.923 12.4612 379.923 11.6073C378.923 10.7534 378.462 9.74429 378.462 8.57991C378.462 7.26027 379 6.17352 380 5.31963C381.077 4.46575 382.385 4 384.077 4C385.846 4 387.308 4.46575 388.385 5.47489C389.462 6.48402 389.923 7.6484 389.923 8.96804V9.04566H387.846C387.846 8.03653 387.538 7.26027 386.923 6.71689C386.308 6.09589 385.385 5.78539 384.154 5.78539C383.077 5.78539 382.231 6.01827 381.615 6.56164C381 7.0274 380.692 7.72603 380.692 8.50228C380.692 9.20091 381 9.82192 381.615 10.2877C382.231 10.7534 383.308 11.2192 384.692 11.5297C386.385 11.9954 387.769 12.6164 388.615 13.4703C389.538 14.3242 390 15.3333 390 16.5753C390 17.895 389.462 18.9817 388.385 19.758C387.308 20.5342 385.923 21 384.154 21C382.538 21 381.077 20.5342 379.846 19.6804C378.615 18.7489 378 17.5845 378 16.1096V16.032H380.154C380.154 17.1187 380.538 17.895 381.308 18.4384C382.077 18.9817 383.077 19.2922 384.154 19.2922C385.308 19.2922 386.154 19.0594 386.846 18.5936C387.538 18.1279 387.846 17.5068 387.846 16.653Z" fill="black"/>
</svg>
