<svg width="1770" height="121" viewBox="0 0 1770 121" fill="none" xmlns="http://www.w3.org/2000/svg">
<g clip-path="url(#clip0_145_342)">
<path d="M33.0823 77.1039L33.438 79.922H33.7937L34.1495 77.4561L49.8013 22.5027H68.2989L43.754 97.5353H24.5449L0 22.5027H18.4976L33.0823 77.1039Z" fill="black"/>
<path d="M96.4999 55.2634L111.717 22.5027H130.826L104.993 71.1154V97.5353H87.6529V70.4108L62.5273 22.5027H81.283L96.4999 55.2634Z" fill="black"/>
<path d="M162.838 83.0924H139.217L134.987 97.5353H117.359L141.685 22.5027H160.37L184.696 97.5353H167.069L162.838 83.0924ZM143.095 69.354H158.96L151.204 42.5818H150.852L143.095 69.354Z" fill="black"/>
<path d="M204.312 84.1492H238.565V97.5353H182.771V89.7854L216.671 35.8888H182.771V22.5027H238.212V29.9003L204.312 84.1492Z" fill="black"/>
<path d="M264.589 22.5027L281.675 74.9903H282.031L299.118 22.5027H322.256V97.5353H304.457V78.8652L306.237 44.6954H305.881L287.727 97.5353H275.98L257.826 45.0477H257.47L259.249 78.8652V97.5353H241.451V22.5027H264.589Z" fill="black"/>
<path d="M347.266 97.5353H329.951V22.5027H347.266V97.5353Z" fill="black"/>
<path d="M418.452 97.5353H400.975L373.154 49.6271H372.797V97.5353H354.963V22.5027H372.797L400.618 70.4108H400.975V22.5027H418.452V97.5353Z" fill="black"/>
<path d="M487.713 67.2293C487.713 76.4379 484.864 84.2297 478.811 90.2507C472.757 96.2717 465.28 99.4592 455.665 99.4592C446.051 99.4592 438.217 96.2717 432.164 90.2507C426.11 84.2297 423.262 76.4379 423.262 67.2293V53.7707C423.262 44.5621 426.11 36.7703 432.164 30.7493C438.217 24.7283 446.051 21.5408 455.665 21.5408C465.28 21.5408 473.113 24.7283 478.811 30.7493C484.864 36.7703 487.713 44.5621 487.713 53.7707V67.2293ZM470.265 53.4165C470.265 48.1039 468.84 43.4996 466.348 40.312C463.855 36.7703 460.294 34.9994 455.665 34.9994C451.036 34.9994 447.119 36.7703 444.627 40.312C442.134 43.8538 440.71 48.1039 440.71 53.7707V67.5835C440.71 72.8961 442.134 77.5004 444.627 81.0422C447.119 84.5839 450.68 86.3548 455.665 86.3548C460.294 86.3548 463.855 84.5839 466.348 81.0422C468.84 77.5004 470.265 73.2503 470.265 67.5835V53.4165Z" fill="black"/>
<path d="M517.786 77.1039L518.14 79.922H518.495L518.849 77.4561L533.734 22.5027H552.163L527.709 97.5353H508.926L484.826 22.5027H503.255L517.786 77.1039Z" fill="black"/>
<path d="M588.985 83.0924H565.364L561.133 97.5353H543.506L567.832 22.5027H586.517L610.843 97.5353H593.215L588.985 83.0924ZM569.242 69.354H585.107L577.351 42.5818H576.998L569.242 69.354Z" fill="black"/>
<path d="M645.473 111.965H632.006V8.07336H645.473V111.965Z" fill="black"/>
<path d="M715.012 78.1117C715.012 75.2654 714.306 73.4864 712.542 72.0633C710.777 70.6401 707.601 69.2169 703.013 67.438C693.485 64.5916 686.427 61.0337 681.839 57.8316C677.251 54.2736 675.134 49.2926 675.134 42.8883C675.134 36.484 677.957 31.5029 683.251 27.5892C688.544 23.6755 695.602 21.5408 704.072 21.5408C712.542 21.5408 719.247 23.6755 724.541 27.945C729.834 32.2145 732.305 37.9072 732.305 44.6673V45.0231H715.365C715.365 42.1767 714.306 39.6862 712.189 37.5514C710.071 35.4167 707.248 34.7051 703.719 34.7051C700.19 34.7051 697.367 35.4167 695.602 37.1956C693.485 38.6188 692.779 40.7535 692.779 42.8883C692.779 45.0231 693.838 46.802 695.955 48.2252C698.073 49.6483 701.602 51.0715 707.248 53.2063C715.718 55.6968 722.07 58.8989 726.658 62.8127C731.246 66.7264 733.01 71.7075 733.01 78.1117C733.01 84.8718 730.54 89.8529 725.246 93.7666C719.953 97.6803 713.248 99.4592 704.778 99.4592C696.308 99.4592 688.897 97.3245 682.545 93.055C676.192 88.7855 673.369 82.3812 673.369 74.198V73.8422H690.309C690.309 78.1117 691.367 81.3139 693.838 83.0928C696.308 84.8718 699.837 85.9391 704.425 85.9391C707.954 85.9391 710.777 85.2276 712.542 83.8044C714.306 82.3812 715.012 80.6023 715.012 78.1117Z" fill="black"/>
<path d="M784.501 65.4791H755.019V84.1492H789.766V97.5353H737.82V22.5027H789.766V35.8888H755.019V52.093H784.501V65.4791Z" fill="black"/>
<path d="M810.036 84.1492H842.674V97.5353H792.652V22.5027H810.391V84.1492H810.036Z" fill="black"/>
<path d="M860.423 77.1039L860.775 79.922H861.128L861.481 77.4561L876.288 22.5027H894.62L870.294 97.5353H851.609L827.283 22.5027H845.616L860.423 77.1039Z" fill="black"/>
<path d="M914.821 97.5353H897.506V22.5027H914.821V97.5353Z" fill="black"/>
<path d="M986.005 97.5353H968.527L940.706 49.6271H940.35V97.5353H922.516V22.5027H940.35L968.171 70.4108H968.527V22.5027H986.005V97.5353Z" fill="black"/>
<path d="M1032.46 78.1117C1032.46 75.2654 1031.75 73.4864 1029.99 72.0633C1028.22 70.6401 1025.05 69.2169 1020.46 67.438C1010.93 64.5916 1003.87 61.0337 999.284 57.8316C994.697 54.2736 992.579 49.2926 992.579 42.8883C992.579 36.484 995.402 31.5029 1000.7 27.5892C1005.99 23.6755 1013.05 21.5408 1021.52 21.5408C1029.99 21.5408 1036.69 23.6755 1041.99 27.945C1047.28 32.2145 1049.75 37.9072 1049.75 44.6673V45.0231H1032.81C1032.81 42.1767 1031.75 39.6862 1029.63 37.5514C1027.52 35.4167 1024.69 34.7051 1021.16 34.7051C1017.64 34.7051 1014.81 35.4167 1013.05 37.1956C1010.93 38.6188 1010.22 40.7535 1010.22 42.8883C1010.22 45.0231 1011.28 46.802 1013.4 48.2252C1015.52 49.6483 1019.05 51.0715 1024.69 53.2063C1033.16 55.6968 1039.52 58.8989 1044.1 62.8127C1048.34 66.7264 1050.46 71.7075 1050.46 78.1117C1050.46 84.8718 1047.99 89.8529 1042.69 93.7666C1037.4 97.6803 1030.69 99.4592 1022.22 99.4592C1013.75 99.4592 1006.34 97.3245 999.99 93.055C993.638 88.7855 990.814 82.3812 990.814 74.198V73.8422H1007.75C1007.75 78.1117 1008.81 81.3139 1011.28 83.0928C1013.75 84.8718 1017.28 85.9391 1021.87 85.9391C1025.4 85.9391 1028.22 85.2276 1029.99 83.8044C1031.4 82.3812 1032.46 80.6023 1032.46 78.1117Z" fill="black"/>
<path d="M1079.19 67.6023H1071.05V98.1421H1053.34V22.5027H1071.05V51.9772H1077.07L1093.71 22.5027H1115.67L1092.3 56.9488L1117.79 98.4973H1096.55L1079.19 67.6023Z" fill="black"/>
<path d="M1144.85 55.2634L1160.15 22.5027H1179.36L1153.75 71.1154V97.5353H1136.32V70.4108L1111.06 22.5027H1129.91L1144.85 55.2634Z" fill="black"/>
<path d="M1244.43 78.1607H1213.01L1205.95 97.5353H1195.71L1224.66 22.5027H1233.49L1262.09 97.5353H1251.85L1244.43 78.1607ZM1216.19 69.7063H1241.61L1229.25 35.5365H1228.9L1216.19 69.7063Z" fill="black"/>
<path d="M1278.17 64.9183V97.4369H1267.86V22.5027H1295.22C1303.4 22.5027 1309.79 24.27 1314.06 28.1581C1318.32 31.6927 1320.45 36.9947 1320.45 44.0639C1320.45 47.952 1319.39 51.1332 1317.26 54.3144C1315.12 57.4955 1312.28 59.6163 1308.37 61.0302C1312.64 62.444 1315.48 64.5648 1317.26 67.746C1319.03 70.9271 1320.1 74.4618 1320.1 79.0568V86.126C1320.1 88.6003 1320.45 90.7211 1320.81 92.4884C1321.17 94.2557 1322.23 96.023 1323.65 97.0834V98.4973H1312.99C1311.57 97.4369 1310.86 95.6695 1310.5 93.1953C1310.15 91.0745 1309.79 88.6003 1309.79 86.126V79.4102C1309.79 75.1687 1308.73 71.9875 1306.24 69.5133C1303.75 67.039 1300.55 65.6252 1296.64 65.6252H1278.17V64.9183ZM1278.17 57.1421H1294.16C1299.84 57.1421 1304.11 56.0817 1306.6 53.9609C1309.08 51.8401 1310.5 48.3055 1310.5 44.0639C1310.5 39.8224 1309.44 36.6412 1306.95 34.167C1304.46 31.6927 1300.55 30.6323 1295.22 30.6323H1278.17V57.1421Z" fill="black"/>
<path d="M1385.83 73.3509C1386.18 80.7886 1383.71 86.8096 1378.42 91.4138C1373.49 96.3723 1366.44 98.4973 1358.33 98.4973C1349.87 98.4973 1342.82 95.3098 1337.53 89.2888C1332.24 83.2678 1329.42 75.476 1329.42 66.2674V52.8088C1329.42 43.6002 1332.24 35.8084 1337.53 29.7874C1342.82 23.7664 1349.87 20.5789 1358.33 20.5789C1366.79 20.5789 1373.49 22.7039 1378.78 27.3082C1383.71 31.9125 1386.18 37.9334 1386.18 45.3711V45.7253H1376.31C1376.31 40.4126 1374.9 36.1625 1371.73 33.3292C1368.55 30.1416 1364.32 28.7249 1358.68 28.7249C1353.04 28.7249 1348.46 30.8499 1344.93 35.4542C1341.41 40.0585 1340 45.7253 1340 52.4546V65.9132C1340 72.6426 1341.76 78.6635 1344.93 83.2678C1348.46 87.8721 1352.69 89.9971 1358.68 89.9971C1364.32 89.9971 1368.55 88.5804 1371.73 85.3929C1374.9 82.2053 1376.31 77.9552 1376.31 72.6426H1385.83V73.3509Z" fill="black"/>
<path d="M1452.2 97.5353H1441.86V64.4223H1404.81V97.5353H1394.84V22.5027H1405.17V56.3202H1442.22V22.5027H1452.55V97.5353H1452.2Z" fill="black"/>
<path d="M1476.6 97.5353H1466.02V22.5027H1476.6V97.5353Z" fill="black"/>
<path d="M1539.13 30.2525H1514.74V97.5353H1504.49V30.2525H1480.45V22.5027H1539.13V30.2525Z" fill="black"/>
<path d="M1590.56 62.661H1555.8V89.4332H1595.89V97.5353H1545.86V22.5027H1595.53V30.6048H1556.15V54.9111H1590.92V62.661H1590.56Z" fill="black"/>
<path d="M1655.17 73.3509C1655.53 80.7886 1653.06 86.8096 1647.77 91.4138C1642.84 96.3723 1635.79 98.4973 1627.68 98.4973C1619.22 98.4973 1612.17 95.3098 1606.88 89.2888C1601.59 83.2678 1598.77 75.476 1598.77 66.2674V52.8088C1598.77 43.6002 1601.59 35.8084 1606.88 29.7874C1612.17 23.7664 1619.22 20.5789 1627.68 20.5789C1636.14 20.5789 1642.84 22.7039 1648.12 27.3082C1653.06 31.9125 1655.53 37.9334 1655.53 45.3711V45.7253H1645.66C1645.66 40.4126 1644.25 36.1625 1641.07 33.3292C1637.9 30.1416 1633.67 28.7249 1628.03 28.7249C1622.39 28.7249 1617.81 30.8499 1614.28 35.4542C1610.76 40.0585 1609.35 45.7253 1609.35 52.4546V65.9132C1609.35 72.6426 1611.11 78.6635 1614.28 83.2678C1617.81 87.8721 1622.04 89.9971 1628.03 89.9971C1633.67 89.9971 1637.9 88.5804 1641.07 85.3929C1644.25 82.2053 1645.66 77.9552 1645.66 72.6426H1655.17V73.3509Z" fill="black"/>
<path d="M1713.24 30.2525H1688.85V97.5353H1678.6V30.2525H1654.56V22.5027H1713.24V30.2525Z" fill="black"/>
<path d="M1759.2 78.573C1759.2 75.015 1757.79 72.1687 1755.33 70.034C1752.87 67.8992 1748.3 65.7645 1741.62 63.9855C1733.54 62.2065 1727.56 59.3602 1722.99 55.4465C1718.42 51.5328 1716.32 46.9075 1716.32 41.5706C1716.32 35.5221 1718.78 30.541 1723.35 26.6273C1728.27 22.7136 1734.24 20.5789 1741.97 20.5789C1750.06 20.5789 1756.74 22.7136 1761.66 27.3389C1766.58 31.9642 1768.69 37.3011 1768.69 43.3496V43.7053H1759.2C1759.2 39.08 1757.79 35.5221 1754.98 33.0316C1752.17 30.1852 1747.95 28.7621 1742.33 28.7621C1737.41 28.7621 1733.54 29.8295 1730.73 32.32C1727.91 34.4548 1726.51 37.6569 1726.51 41.2148C1726.51 44.4169 1727.91 47.2633 1730.73 49.398C1733.54 51.5328 1738.46 53.6675 1744.79 55.0907C1752.52 57.2254 1758.85 60.0718 1762.71 63.9855C1766.93 67.8992 1769.04 72.5245 1769.04 78.2172C1769.04 84.2656 1766.58 89.2467 1761.66 92.8046C1756.74 96.3626 1750.41 98.4973 1742.33 98.4973C1734.94 98.4973 1728.27 96.3626 1722.64 92.4489C1717.02 88.1794 1714.21 82.8425 1714.21 76.0824V75.7266H1724.05C1724.05 80.7077 1725.81 84.2656 1729.32 86.7562C1732.84 89.2467 1737.41 90.6699 1742.33 90.6699C1747.6 90.6699 1751.46 89.6025 1754.63 87.4678C1757.79 85.333 1759.2 82.4867 1759.2 78.573Z" fill="black"/>
</g>
<defs>
<clipPath id="clip0_145_342">
<rect width="1770" height="120.245" fill="white" transform="translate(0 0.377686)"/>
</clipPath>
</defs>
</svg>
